<svg xmlns="http://www.w3.org/2000/svg" width="768" height="768.2411664958711" viewBox="0 0 796.907958984375 797.158203125" version="1.1">
<g transform="translate(-1.545999526977539,-1.2957496643066406)"><path d="M 375 21.623 C 318.911 26.663, 275.696 38.517, 229.949 61.414 C 125.381 113.750, 50.574 212.273, 28.086 327.276 C 22.837 354.119, 21.546 368.481, 21.546 400 C 21.546 431.519, 22.837 445.881, 28.086 472.724 C 42.544 546.662, 78.714 614.551, 132.082 667.918 C 185.449 721.286, 253.338 757.456, 327.276 771.914 C 354.119 777.163, 368.481 778.454, 400 778.454 C 431.519 778.454, 445.881 777.163, 472.724 771.914 C 546.662 757.456, 614.551 721.286, 667.918 667.918 C 721.286 614.551, 757.456 546.662, 771.914 472.724 C 777.163 445.881, 778.454 431.519, 778.454 400 C 778.454 368.481, 777.163 354.119, 771.914 327.276 C 757.456 253.338, 721.286 185.449, 667.918 132.082 C 607.646 71.809, 529.427 33.870, 444 23.473 C 431.155 21.910, 385.449 20.684, 375 21.623 M 373.500 34.586 C 371.850 34.807, 365.550 35.480, 359.500 36.080 C 289.871 42.989, 218.913 73.654, 162.500 121.214 C 151.734 130.291, 128.561 153.548, 119.869 164 C 73.062 220.287, 44.806 286.029, 35.842 359.500 C 34.042 374.257, 34.042 425.743, 35.842 440.500 C 44.905 514.778, 73.626 581.054, 121.214 637.500 C 130.291 648.266, 153.548 671.439, 164 680.131 C 220.287 726.938, 286.029 755.194, 359.500 764.158 C 374.257 765.958, 425.743 765.958, 440.500 764.158 C 513.971 755.194, 579.713 726.938, 636 680.131 C 646.452 671.439, 669.709 648.266, 678.786 637.500 C 721.127 587.278, 748.728 528.910, 760.359 465 C 764.708 441.105, 765.500 431.086, 765.500 400 C 765.500 368.914, 764.708 358.895, 760.359 335 C 748.874 271.892, 721.718 214.010, 680.131 164 C 671.439 153.548, 648.266 130.291, 637.500 121.214 C 582.061 74.475, 517.450 46.040, 444.795 36.407 C 433.219 34.872, 381.246 33.544, 373.500 34.586 M 403.500 73.915 C 397.608 75.550, 395.333 76.857, 392.231 80.390 C 384.247 89.483, 384.176 107.436, 392.090 116.449 C 393.952 118.570, 397.071 120.539, 400.297 121.631 C 406.719 123.804, 418.133 123.866, 423.105 121.754 C 428.324 119.538, 433.725 113.699, 435.127 108.757 C 436.804 102.846, 436.607 91.258, 434.754 86.895 C 432.628 81.888, 426.761 76.311, 422.269 75.026 C 416.979 73.513, 407.064 72.926, 403.500 73.915 M 446.263 78.250 C 445.253 79.537, 437.988 117.745, 437.996 121.731 C 438.001 124.228, 440.759 125.303, 447.478 125.427 L 451.457 125.500 453.260 117.052 C 454.252 112.405, 455.174 108.492, 455.310 108.357 C 455.445 108.221, 457.344 108.525, 459.528 109.031 C 461.713 109.538, 465.148 109.963, 467.162 109.976 C 470.655 109.999, 470.855 109.817, 471.494 106.037 C 471.862 103.857, 471.900 101.647, 471.578 101.127 C 471.257 100.606, 467.826 99.614, 463.954 98.922 L 456.915 97.664 457.563 94.582 C 457.919 92.887, 458.566 91.120, 459 90.655 C 459.434 90.190, 463.260 90.528, 467.502 91.405 C 479.172 93.819, 479.731 93.714, 481.034 88.873 C 481.697 86.412, 481.780 84.380, 481.241 83.841 C 480.437 83.037, 451.506 77, 448.458 77 C 447.791 77, 446.803 77.563, 446.263 78.250 M 343.500 79.573 C 333.450 81.113, 330 82.319, 330 84.291 C 330 85.025, 331.361 93.889, 333.025 103.988 C 334.689 114.087, 335.914 122.757, 335.748 123.255 C 335.582 123.753, 332.793 115.912, 329.549 105.830 C 326.305 95.749, 323.057 86.844, 322.331 86.041 C 321.212 84.805, 320.285 84.775, 316.255 85.845 C 308.297 87.957, 308.145 88.451, 311.987 99.712 C 313.823 105.095, 315.562 110.158, 315.851 110.961 C 316.140 111.765, 311.679 108.795, 305.938 104.362 C 292.031 93.622, 292.217 93.707, 286.609 95.617 C 283.065 96.825, 282 97.680, 282 99.318 C 282 102.862, 295.353 141.922, 296.748 142.457 C 298.624 143.177, 309 139.084, 309 137.625 C 309 136.947, 307.451 131.794, 305.558 126.174 C 303.666 120.553, 302.653 116.271, 303.308 116.659 C 303.964 117.046, 307.875 119.893, 312 122.985 C 326.449 133.815, 325.560 133.383, 330.543 131.988 C 332.974 131.307, 335.437 130.178, 336.018 129.479 C 336.598 128.779, 337.929 128.430, 338.974 128.703 C 342.282 129.569, 361.299 125.858, 366.188 123.393 C 377.320 117.780, 380.456 105.177, 374.453 90.174 C 372.177 84.487, 367.270 80.438, 361.030 79.100 C 354.983 77.803, 355.064 77.801, 343.500 79.573 M 405.656 85.133 C 401.240 87.700, 399.323 101.856, 402.548 108.093 C 405.002 112.839, 411.407 114.392, 416.871 111.566 C 423.540 108.118, 423.746 88.610, 417.150 85.080 C 414.582 83.706, 408.060 83.736, 405.656 85.133 M 490.986 90.541 C 490.344 92.489, 490.058 94.708, 490.351 95.472 C 490.644 96.236, 493.385 97.650, 496.442 98.613 C 499.499 99.577, 502 100.711, 502 101.134 C 502 101.557, 499.499 108.935, 496.442 117.530 C 493.385 126.126, 491.028 133.907, 491.204 134.821 C 491.618 136.971, 496.477 139.283, 500.838 139.404 L 504.260 139.500 510.131 123.082 C 513.360 114.053, 516.132 106.535, 516.291 106.376 C 516.450 106.217, 519.262 106.920, 522.540 107.938 C 525.818 108.957, 528.883 109.557, 529.352 109.273 C 531.011 108.266, 533.168 101.768, 532.173 100.773 C 530.844 99.444, 496.405 87, 494.056 87 C 492.766 87, 491.779 88.138, 490.986 90.541 M 347.391 89.687 L 345.282 90.102 347.561 103.137 C 348.814 110.307, 349.988 116.319, 350.169 116.499 C 350.351 116.679, 352.509 116.458, 354.964 116.008 C 362.833 114.566, 364.874 108.674, 361.472 97.219 C 359.293 89.881, 355.828 88.027, 347.391 89.687 M 541.240 108.750 C 537.288 114.479, 521 144.659, 521 146.251 C 521 148.024, 528.586 153, 531.289 153 C 532.224 153, 534.391 150.371, 536.441 146.750 C 538.388 143.313, 540.382 139.885, 540.872 139.133 C 541.585 138.038, 543.034 138.508, 548.132 141.485 C 551.634 143.531, 554.653 145.349, 554.839 145.525 C 555.026 145.701, 553.301 149.059, 551.007 152.988 C 548.713 156.916, 547.076 160.756, 547.370 161.522 C 548.221 163.740, 556.043 168.222, 558.117 167.680 C 559.428 167.337, 560 167.715, 560 168.926 C 560 170.454, 576.420 184.298, 584.554 189.627 L 587.287 191.418 590.144 187.997 C 591.715 186.115, 593 184.239, 593 183.827 C 593 183.415, 589.400 180.288, 585 176.878 C 580.600 173.467, 577 170.153, 577 169.513 C 577 168.872, 578.087 167.327, 579.416 166.079 L 581.832 163.809 587.257 167.904 C 590.241 170.157, 593.171 172, 593.768 172 C 595.281 172, 599.005 167.074, 598.974 165.115 C 598.960 164.227, 596.538 161.700, 593.591 159.500 C 588.032 155.349, 587.960 155.059, 591.414 150.653 C 592.785 148.904, 593.291 149.132, 600.872 154.903 C 605.278 158.256, 609.499 161, 610.253 161 C 611.674 161, 616 155.816, 616 154.114 C 616 152.484, 590.634 133.032, 588.500 133.025 C 587.096 133.021, 582.813 137.784, 574.128 149.010 C 561.956 164.743, 558.915 168.165, 562.810 161.750 C 569.799 150.238, 581 129.478, 581 128.038 C 581 126.421, 572.652 121, 570.164 121 C 569.577 121, 567.505 123.813, 565.559 127.250 C 563.612 130.688, 561.619 134.115, 561.129 134.866 C 560.416 135.960, 558.923 135.496, 553.619 132.530 C 549.979 130.494, 547 128.682, 547 128.503 C 547 128.325, 548.856 124.903, 551.125 120.900 C 555.778 112.689, 555.663 111.847, 549.404 108.266 C 544.369 105.386, 543.525 105.436, 541.240 108.750 M 249.815 113.035 C 247.788 114.105, 245.847 115.439, 245.501 115.998 C 244.970 116.858, 247.841 149.333, 249.505 161.270 L 250.030 165.040 242.936 161.468 L 235.842 157.895 236.497 154.015 C 237.305 149.238, 234.674 142.827, 230.177 138.608 C 226.209 134.886, 218.981 133.947, 213.916 136.496 C 208.667 139.136, 192 152.023, 192 153.441 C 192 155.587, 219.037 190, 220.723 190 C 223.220 190, 230.938 183.864, 230.985 181.842 C 230.993 181.480, 228.986 178.711, 226.525 175.690 L 222.051 170.197 224.382 168.670 C 226.575 167.232, 227.090 167.372, 233.106 171.036 C 236.623 173.177, 240.146 174.945, 240.936 174.965 C 241.725 174.984, 244.428 173.266, 246.942 171.146 C 249.455 169.027, 254.151 165.803, 257.376 163.983 L 263.240 160.674 262.688 156.018 L 262.137 151.362 268.642 148.154 L 275.147 144.946 278.150 147.473 C 279.802 148.863, 281.627 150, 282.205 150 C 283.863 150, 294 143.953, 294 142.964 C 294 141.804, 255.902 110.986, 254.540 111.044 C 253.968 111.069, 251.842 111.964, 249.815 113.035 M 259.436 135.232 C 259.818 138.109, 260.284 140.618, 260.472 140.806 C 260.660 140.994, 262.259 140.400, 264.025 139.487 L 267.236 137.826 263.415 133.913 C 261.314 131.761, 259.402 130, 259.168 130 C 258.934 130, 259.055 132.354, 259.436 135.232 M 212.263 150.107 C 208.659 152.415, 208.759 153.016, 213.717 158.875 L 216.573 162.251 219.786 158.591 C 223.581 154.269, 223.613 154.048, 220.927 150.635 C 218.439 147.471, 216.557 147.357, 212.263 150.107 M 624.649 164.693 C 624.362 165.687, 622.084 173.030, 619.586 181.012 C 615.173 195.115, 614.890 195.677, 609.523 200.978 C 606.485 203.977, 604 207.008, 604 207.713 C 604 209.551, 610.959 217, 612.676 217 C 613.470 217, 616.455 214.794, 619.310 212.097 L 624.500 207.194 641.240 203.597 C 650.447 201.619, 658.210 200, 658.490 200 C 660.577 200, 654.110 190.998, 650.408 188.748 C 649.727 188.334, 645.053 188.943, 640.022 190.102 C 634.991 191.260, 630.683 192.016, 630.449 191.782 C 630.214 191.548, 631.417 187.197, 633.122 182.115 L 636.221 172.874 632.250 168.187 C 627.891 163.040, 625.450 161.919, 624.649 164.693 M 177.904 166.846 C 173.919 169.373, 158.003 185.613, 157.181 187.990 C 156.865 188.905, 186.816 218.708, 189.716 220.364 C 190.851 221.012, 193.338 219.137, 199.666 212.864 C 210.350 202.271, 214 196.902, 214 191.779 C 214 184.126, 208.605 178, 201.865 178 C 198.278 178, 198 177.794, 198 175.135 C 198 169.776, 191.115 164, 184.728 164 C 183.443 164, 180.372 165.281, 177.904 166.846 M 369.500 167.563 C 263.633 181.923, 181.411 264.465, 167.546 370.301 C 164.566 393.047, 165.912 427.093, 170.637 448.500 C 190.852 540.088, 259.912 609.148, 351.500 629.363 C 379.561 635.556, 420.439 635.556, 448.500 629.363 C 546.926 607.639, 619.457 528.914, 632.454 429.699 C 635.434 406.953, 634.088 372.907, 629.363 351.500 C 607.639 253.074, 528.914 180.543, 429.699 167.546 C 415.174 165.643, 383.586 165.652, 369.500 167.563 M 177.087 181.710 L 174.029 185.421 176.709 188.218 L 179.389 191.015 182.694 187.812 C 186.106 184.505, 186.892 181.292, 184.800 179.200 C 182.695 177.095, 180.230 177.897, 177.087 181.710 M 382.500 178.999 C 294.500 186.403, 218.844 244.980, 190.704 327.500 C 181.845 353.478, 178.746 372.267, 178.746 400 C 178.746 427.733, 181.845 446.522, 190.704 472.500 C 212.369 536.033, 263.967 587.631, 327.500 609.296 C 353.478 618.155, 372.267 621.254, 400 621.254 C 427.733 621.254, 446.522 618.155, 472.500 609.296 C 536.033 587.631, 587.631 536.033, 609.296 472.500 C 618.155 446.522, 621.254 427.733, 621.254 400 C 621.254 372.267, 618.155 353.478, 609.296 327.500 C 582.721 249.571, 513.311 192.385, 431 180.605 C 417.451 178.666, 395.207 177.930, 382.500 178.999 M 190.697 193.798 L 186.988 197.596 190.338 200.843 L 193.687 204.089 197.343 200.042 C 201.372 195.582, 201.781 193.923, 199.429 191.571 C 196.970 189.113, 194.709 189.690, 190.697 193.798 M 146.741 206.429 C 144.673 207.167, 142.324 208.316, 141.522 208.982 C 138.541 211.456, 125.875 231.115, 126.192 232.776 C 126.529 234.544, 161.502 258.950, 163.744 258.982 C 165.399 259.006, 171 251.193, 171 248.860 C 171 247.743, 168.872 245.607, 165.579 243.421 L 160.159 239.822 163.996 233.885 C 168.323 227.191, 169.633 221.805, 167.992 217.455 C 166.183 212.660, 161.017 208.082, 155.596 206.473 C 152.868 205.663, 150.606 205.020, 150.568 205.044 C 150.531 205.068, 148.808 205.691, 146.741 206.429 M 648 216.571 C 625.398 231.351, 624.950 231.694, 625.685 233.716 C 626.042 234.697, 630.196 241.321, 634.917 248.436 C 639.638 255.550, 644.520 263.425, 645.767 265.936 C 647.014 268.446, 648.410 271.175, 648.869 272 C 649.356 272.876, 651.706 273.708, 654.516 274 L 659.328 274.500 662.059 280.947 L 664.789 287.394 661.895 290.098 C 660.303 291.586, 659 293.242, 659 293.780 C 659 295.989, 664.239 306, 665.395 306 C 666.632 306, 699.124 271.127, 699.813 269.060 C 700.010 268.469, 699.191 265.961, 697.993 263.486 L 695.815 258.987 672.798 259.656 L 649.780 260.325 651.087 258.232 C 652.262 256.351, 651.822 255.281, 646.723 247.619 L 641.053 239.099 643.931 237.049 C 645.514 235.922, 647.189 235.008, 647.654 235.018 C 648.119 235.028, 649.980 237.299, 651.788 240.064 C 655.670 246, 657.343 246.859, 660.876 244.727 C 664.671 242.436, 664.592 239.800, 660.550 233.803 C 657.213 228.852, 657.093 228.412, 658.738 227.177 C 663.439 223.646, 663.477 223.665, 669.379 232.533 C 675.556 241.815, 677.065 242.569, 681.625 238.646 L 684.361 236.292 681.750 231.896 C 675.889 222.027, 665.403 207.497, 664 207.300 C 663.175 207.184, 655.975 211.356, 648 216.571 M 144.068 222.904 C 142.931 224.502, 142.008 226.189, 142.018 226.654 C 142.028 227.119, 144.174 228.897, 146.788 230.605 L 151.540 233.711 153.125 231.605 C 156.148 227.591, 156.370 225.023, 153.920 222.415 C 150.738 219.027, 146.685 219.229, 144.068 222.904 M 121 249.532 C 115.889 251.837, 112.202 255.729, 108.818 262.394 C 102.964 273.925, 104.204 284.595, 112.193 291.433 C 124.301 301.798, 139.831 302.651, 147.955 293.398 C 155.617 284.672, 158.741 272.847, 155.574 264.555 C 151.284 253.320, 131.582 244.760, 121 249.532 M 120.048 264.798 C 117.173 267.674, 116.491 269.826, 116.978 274.500 C 117.452 279.056, 126.041 284.744, 133.842 285.668 C 138.511 286.221, 139.117 286.037, 141.944 283.210 C 146.006 279.148, 146.415 273.222, 142.896 269.420 C 140.075 266.373, 132.364 262.795, 127.412 262.237 C 123.608 261.808, 122.734 262.113, 120.048 264.798 M 671.040 272.954 C 669.760 273.764, 669.761 274.261, 671.048 276.979 L 672.516 280.080 676.461 276.040 L 680.406 272 676.453 272.015 C 674.279 272.024, 671.843 272.446, 671.040 272.954 M 95.234 298.635 C 93.415 302.172, 85.649 335.642, 86.271 337.264 C 86.932 338.985, 93.156 340.640, 94.904 339.559 C 95.473 339.208, 96.492 336.238, 97.169 332.960 C 97.846 329.682, 98.648 327.003, 98.950 327.006 C 99.253 327.010, 107.081 329.004, 116.346 331.438 C 125.612 333.872, 133.779 335.638, 134.495 335.364 C 135.810 334.859, 138 327.819, 138 324.096 C 138 321.877, 138.818 322.168, 117.933 316.971 C 111.021 315.251, 104.802 313.496, 104.113 313.070 C 103.110 312.450, 103.114 311.070, 104.130 306.148 C 105.582 299.118, 105.137 298.221, 99.760 297.349 C 96.922 296.888, 95.998 297.151, 95.234 298.635 M 685.771 302.345 C 675.470 305.180, 666.596 307.959, 666.051 308.520 C 665.101 309.498, 667.043 319.376, 668.464 320.798 C 669.011 321.344, 679.386 319.557, 682.416 318.394 C 683.254 318.072, 683.930 318.855, 684.247 320.513 C 684.685 322.806, 683.941 323.739, 678.416 327.821 C 671.521 332.915, 671.171 333.822, 673.119 341.557 C 673.882 344.587, 674.756 345.983, 675.869 345.947 C 676.766 345.917, 680.385 343.505, 683.910 340.586 L 690.321 335.278 693.800 337.639 C 699.449 341.473, 708.057 340.143, 713.624 334.576 C 718.483 329.717, 718.821 325.698, 715.520 312.030 C 713.989 305.689, 712.329 299.712, 711.833 298.750 C 710.462 296.094, 706.498 296.640, 685.771 302.345 M 699.250 313.864 C 693.543 315.413, 693.190 316.126, 695.449 321.532 C 696.579 324.237, 697.474 325, 699.515 325 C 704.137 325, 706.007 323.313, 705.930 319.215 C 705.806 312.659, 705.271 312.230, 699.250 313.864 M 76.200 364.200 C 75.540 364.860, 75 367.796, 75 370.725 C 75 375.343, 75.299 376.156, 77.250 376.850 C 78.487 377.291, 91.639 378.653, 106.475 379.878 C 137.448 382.434, 136 382.754, 136 373.354 C 136 366.997, 138.773 367.760, 105.591 364.993 C 77.467 362.649, 77.744 362.656, 76.200 364.200 M 694.697 368.967 C 682.705 369.924, 672.455 371.145, 671.918 371.682 C 670.489 373.111, 671.980 384.055, 673.694 384.713 C 674.463 385.008, 687.534 384.301, 702.742 383.143 C 723.410 381.569, 730.759 380.669, 731.847 379.582 C 733.002 378.427, 733.116 377.029, 732.401 372.813 L 731.500 367.500 724 367.364 C 719.875 367.290, 706.689 368.011, 694.697 368.967 M 116.358 415.509 C 116.017 416.399, 116.028 419.967, 116.383 423.436 L 117.030 429.744 106.765 431.321 C 101.119 432.189, 92.561 433.440, 87.746 434.101 C 82.932 434.763, 78.509 435.887, 77.918 436.599 C 76.495 438.313, 77.775 448.568, 79.601 450.084 C 80.646 450.951, 85.450 450.585, 99.507 448.565 C 109.698 447.102, 118.413 446.137, 118.875 446.423 C 119.336 446.708, 119.978 449.501, 120.301 452.629 C 121.058 459.958, 122.564 461.537, 127.657 460.339 C 131.253 459.493, 131.516 459.181, 131.746 455.468 C 131.881 453.285, 130.756 443.175, 129.246 433 L 126.500 414.500 121.740 414.195 C 118.083 413.960, 116.836 414.265, 116.358 415.509 M 686.984 416.868 C 682.065 419.505, 679.327 425.545, 677.518 437.743 C 675.331 452.502, 675.460 455.830, 678.250 456.513 C 685.434 458.272, 724.610 462.744, 726.057 461.969 C 727.558 461.166, 729 455.251, 729 449.899 C 729 447.959, 725.620 446.748, 716.849 445.545 C 712.419 444.937, 712.231 444.783, 712.897 442.292 C 713.508 440.009, 714.647 439.391, 721.889 437.415 C 726.450 436.170, 730.412 434.922, 730.692 434.641 C 731.689 433.644, 732.748 421.485, 731.916 420.585 C 731.411 420.039, 727.335 420.790, 721.822 422.445 C 714.451 424.657, 712.484 424.944, 712.134 423.860 C 711.291 421.250, 705.131 416.276, 701.953 415.641 C 696.225 414.495, 690.542 414.961, 686.984 416.868 M 691.033 432.461 C 690.366 433.264, 689.581 435.708, 689.288 437.892 C 688.757 441.850, 688.768 441.866, 692.627 442.489 C 694.757 442.834, 697.466 443.311, 698.646 443.550 C 701.063 444.041, 702 442.449, 702 437.852 C 702 432.848, 700.405 431, 696.087 431 C 693.938 431, 691.711 431.644, 691.033 432.461 M 109 469.542 C 97.008 473.281, 89.069 482.468, 89.023 492.661 C 88.972 503.943, 94.917 516.104, 102.728 520.695 C 114.020 527.333, 134.894 521.862, 141.540 510.523 C 146.848 501.465, 145.364 488.204, 137.816 477.233 C 132.187 469.051, 120.543 465.944, 109 469.542 M 694 476.048 C 682.725 477.033, 672.476 477.876, 671.225 477.920 C 668.745 478.007, 667.142 480.974, 666.320 487 C 665.847 490.468, 666.025 490.657, 685.953 507.750 C 697.013 517.237, 706.687 525, 707.450 525 C 710.344 525, 714.003 509.115, 711.143 508.967 C 710.789 508.948, 709.414 508.029, 708.087 506.925 L 705.674 504.916 708.013 497.458 C 710.180 490.548, 710.555 490, 713.111 490 C 718.832 490, 720.652 488.487, 722.885 481.874 C 724.048 478.430, 725 475.249, 725 474.806 C 725 473.682, 717.737 473.973, 694 476.048 M 114.722 484.493 C 102.264 487.919, 97.758 495.765, 103.443 504.132 C 106.326 508.373, 110.038 509.448, 116.671 507.962 C 129.985 504.978, 135.521 497.862, 131.167 489.327 C 128.020 483.158, 123.938 481.958, 114.722 484.493 M 690.881 494 C 693.664 496.200, 696.131 498, 696.362 498 C 696.594 498, 697.055 496.917, 697.387 495.593 C 697.720 494.269, 698.267 492.469, 698.603 491.593 C 699.124 490.233, 698.233 490, 692.517 490 L 685.820 490 690.881 494 M 658.330 509.775 C 656.494 510.943, 640.750 541.912, 641.298 543.278 C 642.019 545.073, 684.828 567.280, 686.404 566.675 C 687.942 566.085, 704 535.866, 704 533.563 C 704 531.851, 696.446 527.607, 694.995 528.503 C 694.480 528.821, 692.227 532.603, 689.988 536.907 C 683.805 548.790, 684.028 548.578, 679.928 546.490 C 678.042 545.531, 676.358 544.623, 676.185 544.474 C 676.011 544.325, 677.249 541.470, 678.935 538.130 C 680.621 534.790, 682 531.156, 682 530.054 C 682 528.043, 677.557 525, 674.620 525 C 673.807 525, 671.456 528.119, 669.397 531.932 L 665.653 538.864 661.826 536.911 C 659.722 535.838, 658 534.668, 658 534.313 C 658 533.957, 660.268 529.422, 663.040 524.234 C 668.510 513.996, 668.502 513.345, 662.872 510.434 C 659.670 508.778, 659.855 508.805, 658.330 509.775 M 130 527.123 C 119.275 533.207, 109.649 539.007, 108.608 540.012 C 106.755 541.802, 106.778 541.950, 109.721 547.170 C 111.547 550.409, 113.512 552.619, 114.730 552.802 C 115.833 552.968, 119.064 551.731, 121.911 550.052 C 124.759 548.373, 127.286 547, 127.529 547 C 127.771 547, 129.751 549.822, 131.930 553.272 C 139.196 564.776, 146.389 567.491, 156.500 562.544 C 163.722 559.011, 167 554.345, 167 547.601 C 167 543.489, 165.980 540.731, 160.891 531.083 C 154.540 519.042, 152.445 515.979, 150.595 516.030 C 149.993 516.047, 140.725 521.039, 130 527.123 M 143.975 537.426 C 140.964 539.194, 138.502 540.834, 138.504 541.071 C 138.506 541.307, 139.503 543.188, 140.720 545.250 C 142.474 548.223, 143.538 549, 145.855 549 C 149.648 549, 153.250 546.038, 153.250 542.919 C 153.250 541.566, 152.395 539.054, 151.350 537.336 L 149.450 534.212 143.975 537.426 M 635.071 551.030 C 632.832 553.862, 631 556.958, 631 557.910 C 631 558.862, 632.800 563.853, 635 569 C 637.200 574.147, 639 578.423, 639 578.502 C 639 578.581, 635.513 578.075, 631.250 577.376 C 617.462 575.116, 616.616 575.280, 612.023 581.090 C 607.939 586.257, 606.988 588.977, 609.250 589.028 C 609.938 589.044, 618.456 590.118, 628.179 591.415 L 645.859 593.775 651.854 598.387 C 655.151 600.924, 658.744 603, 659.839 603 C 662.219 603, 669.286 593.872, 668.468 591.854 C 668.166 591.109, 665.180 588.422, 661.833 585.881 L 655.746 581.262 648.594 563.955 C 644.661 554.436, 640.925 546.475, 640.292 546.264 C 639.659 546.053, 637.309 548.198, 635.071 551.030 M 157.909 575.616 C 147.784 584.205, 139.354 592.097, 139.175 593.155 C 138.968 594.385, 141.446 598.136, 146.050 603.559 C 160.861 621.005, 166.394 624.131, 175.406 620.145 C 180.747 617.782, 184.233 612.929, 183.772 608.500 C 183.470 605.592, 183.589 605.500, 187.674 605.500 C 191.130 605.500, 192.534 604.875, 195.471 602.028 C 200.619 597.039, 201.759 592.495, 199.266 586.900 C 196.950 581.699, 179.097 560, 177.134 560 C 176.685 560, 168.033 567.027, 157.909 575.616 M 175.257 581.579 L 172.014 584.134 175.174 588.067 C 178.862 592.656, 183.156 593.446, 185.061 589.886 C 186.013 588.107, 185.722 587.123, 183.228 583.680 C 181.598 581.429, 179.867 579.461, 179.382 579.306 C 178.897 579.151, 177.041 580.174, 175.257 581.579 M 159.807 594.881 L 156.582 597.763 159.394 601.450 C 163.284 606.550, 166.390 607.862, 168.996 605.504 C 170.098 604.506, 171 602.812, 171 601.739 C 171 599.659, 165.441 592, 163.932 592 C 163.437 592, 161.580 593.297, 159.807 594.881 M 597.313 596.152 C 583.489 608.087, 575 616.458, 575 618.153 C 575 619.184, 581.130 626.883, 588.622 635.263 C 606.486 655.244, 607.602 656.283, 609.887 655.060 C 612.280 653.780, 635.249 633.100, 636.366 631.221 C 636.981 630.185, 636.207 628.740, 633.683 626.216 C 629.550 622.083, 630.236 621.821, 619.148 631.785 L 612.154 638.069 609.347 634.389 L 606.540 630.709 612.270 625.501 C 615.422 622.637, 617.998 619.891, 617.995 619.397 C 617.993 618.904, 616.618 617.035, 614.940 615.245 C 611.423 611.493, 611.009 611.596, 603.694 618.036 L 598.889 622.268 595.944 619.447 C 594.325 617.895, 593 616.347, 593 616.006 C 593 615.666, 596.366 612.487, 600.480 608.943 C 604.593 605.400, 608.217 601.733, 608.533 600.796 C 609.191 598.837, 606.565 594.373, 603.921 592.958 C 602.498 592.196, 601.127 592.858, 597.313 596.152 M 190.609 614.191 C 182.024 624.196, 175 633.166, 175 634.124 C 175 636.049, 182.891 642.992, 185.103 643.014 C 185.871 643.021, 188.750 640.525, 191.500 637.466 C 196.298 632.130, 196.588 631.968, 198.686 633.465 L 200.873 635.024 198.436 642.187 C 195.052 652.137, 195.203 653.161, 200.750 657.916 C 203.363 660.155, 206.014 661.990, 206.642 661.994 C 207.269 661.997, 208.083 660.763, 208.449 659.250 C 208.815 657.737, 210.008 653.462, 211.100 649.750 C 213.062 643.077, 213.125 643, 216.592 643 C 221.199 643, 224.842 641.024, 229.269 636.124 C 235.098 629.672, 235.481 621.102, 230.220 614.849 C 225.781 609.575, 209.706 596, 207.898 596 C 206.960 596, 199.333 604.025, 190.609 614.191 M 207.536 618.521 L 203.831 623.043 206.166 625.056 C 209.740 628.139, 212.837 629.158, 215.043 627.977 C 217.232 626.805, 219 623.897, 219 621.467 C 219 619.836, 213.540 614, 212.015 614 C 211.589 614, 209.574 616.035, 207.536 618.521 M 565.250 623.099 C 562.913 624.755, 561 626.606, 561 627.212 C 561 627.819, 563.215 631.804, 565.922 636.068 L 570.844 643.820 565.672 647.247 C 555.736 653.831, 556.733 653.948, 551.521 645.586 C 548.981 641.511, 546.190 637.903, 545.319 637.569 C 543.477 636.862, 534.481 642.305, 533.570 644.677 C 532.995 646.177, 556.543 684.546, 559.591 687.076 C 560.502 687.831, 561.542 687.793, 563.186 686.944 C 567.790 684.567, 572 680.862, 572 679.188 C 572 678.248, 569.975 674.460, 567.500 670.771 C 565.025 667.081, 563.018 663.711, 563.041 663.281 C 563.087 662.399, 576.944 653.570, 577.394 654.135 C 577.554 654.336, 579.737 657.709, 582.245 661.631 C 584.753 665.553, 587.314 669.076, 587.934 669.460 C 588.555 669.843, 591.412 668.831, 594.282 667.209 C 598.348 664.912, 599.500 663.721, 599.500 661.814 C 599.500 660.398, 594.235 651.082, 587 639.696 C 572.948 617.584, 572.991 617.616, 565.250 623.099 M 252.599 637.250 C 239.241 646.648, 214.066 665.653, 213.628 666.670 C 213.139 667.805, 224.022 675, 226.227 675 C 226.823 675, 228.831 673.841, 230.688 672.424 L 234.065 669.849 240.634 673.674 L 247.204 677.500 246.661 682.149 C 246.047 687.409, 246.466 687.976, 254.316 692.495 C 256.984 694.031, 259.476 694.873, 259.903 694.384 C 260.328 693.898, 262.124 682.700, 263.896 669.500 C 265.668 656.300, 267.354 644.102, 267.643 642.394 C 268.122 639.562, 267.771 639.056, 263.656 636.644 C 261.174 635.190, 258.711 634, 258.181 634 C 257.652 634, 255.140 635.462, 252.599 637.250 M 507 654.667 C 496.825 658.784, 487.913 662.721, 487.195 663.417 C 486.122 664.457, 486.186 665.424, 487.553 668.841 C 489.496 673.698, 490.509 673.885, 498.431 670.854 C 501.516 669.673, 504.187 668.885, 504.366 669.104 C 504.546 669.322, 507.790 677.316, 511.576 686.870 C 515.362 696.423, 519.108 704.488, 519.900 704.792 C 520.691 705.096, 523.850 704.479, 526.920 703.422 C 530.935 702.039, 532.578 700.939, 532.779 699.500 C 532.932 698.400, 529.899 689.658, 526.039 680.073 C 522.178 670.489, 519.128 662.589, 519.260 662.518 C 519.392 662.448, 522.200 661.258, 525.500 659.874 C 531.331 657.428, 531.497 657.254, 531.388 653.697 C 531.261 649.588, 529.563 646.955, 527.128 647.091 C 526.232 647.141, 517.175 650.550, 507 654.667 M 287.039 653.928 C 284.498 658.674, 271.111 698.124, 271.604 699.410 C 272.302 701.228, 279.138 704, 282.926 704 C 285.638 704, 285.995 703.492, 288.886 695.501 C 290.577 690.827, 292.245 685.873, 292.591 684.492 C 292.938 683.111, 293.530 681.790, 293.908 681.557 C 294.286 681.323, 295.878 685.940, 297.447 691.816 C 302.997 712.606, 302.511 711.541, 307.282 713.363 C 312.849 715.490, 314.701 715.428, 315.961 713.072 C 318.264 708.770, 332.046 668.562, 331.609 667.423 C 330.992 665.816, 320.457 661.888, 318.637 662.586 C 317.862 662.883, 315.549 667.936, 313.497 673.813 C 311.445 679.691, 309.463 684.834, 309.092 685.241 C 308.721 685.649, 306.917 680.249, 305.082 673.241 C 300.413 655.402, 300.033 654.626, 295.268 653.198 C 289.770 651.551, 288.238 651.687, 287.039 653.928 M 247.794 657.750 C 245.210 659.813, 243.074 661.740, 243.048 662.034 C 242.947 663.157, 249.218 666.177, 249.953 665.360 C 250.560 664.685, 253.051 654, 252.602 654 C 252.541 654, 250.378 655.688, 247.794 657.750 M 461.500 668.633 C 452.700 670.528, 444.903 672.673, 444.174 673.401 C 443.073 674.499, 443.718 678.691, 447.974 698.112 C 450.793 710.975, 453.641 722.048, 454.303 722.717 C 455.248 723.673, 456.748 723.646, 461.299 722.588 C 464.485 721.847, 467.386 720.948, 467.744 720.589 C 468.311 720.022, 467.233 712.391, 465.374 703.817 C 464.836 701.333, 465.117 701.052, 469.146 700.055 C 480.572 697.224, 481 697.024, 481 694.525 C 481 693.208, 480.561 690.976, 480.025 689.565 C 478.881 686.556, 476.506 686.324, 467.813 688.370 L 462.126 689.708 461.459 685.758 C 461.092 683.586, 461.176 681.475, 461.646 681.068 C 462.116 680.661, 466.325 679.553, 471 678.606 C 475.675 677.658, 480.288 676.654, 481.250 676.374 C 484.584 675.405, 482.746 664.910, 479.275 665.094 C 478.299 665.146, 470.300 666.738, 461.500 668.633 M 333.771 668.372 C 331.781 670.362, 324.207 716.607, 325.636 718.036 C 327.284 719.684, 350.864 723.263, 355.753 722.607 C 367.270 721.064, 373.432 714.159, 376.018 699.901 C 378.144 688.174, 374.061 678.623, 364.930 673.964 C 362.068 672.504, 338.963 667, 335.696 667 C 335.392 667, 334.525 667.617, 333.771 668.372 M 403.764 674.996 C 392.517 678.382, 386.112 689.350, 387.232 703.305 C 388.190 715.239, 393.612 723.305, 402.910 726.629 C 407.822 728.385, 419.567 728.318, 425.692 726.499 C 445.654 720.571, 447.727 686.019, 428.691 676.533 C 424.379 674.384, 422.309 674.013, 415.054 674.086 C 410.349 674.133, 405.269 674.543, 403.764 674.996 M 346.586 682.141 C 345.506 685.518, 341.820 709.154, 342.299 709.632 C 343.265 710.599, 350.824 711.261, 353.427 710.608 C 356.844 709.750, 360.078 703.233, 360.747 695.857 C 361.609 686.351, 359.309 683.087, 350.600 681.453 C 348.003 680.966, 346.902 681.155, 346.586 682.141 M 406.766 687.918 C 403.520 690.818, 403.500 690.893, 403.500 700.168 C 403.500 708.294, 403.796 709.915, 405.791 712.712 C 409.783 718.309, 419.179 718.319, 423.352 712.731 C 427.958 706.562, 426.175 690.311, 420.483 686.581 C 416.486 683.962, 410.546 684.540, 406.766 687.918" stroke="none" fill="#000000" fill-rule="evenodd"/></g></svg>